<mxfile host="app.diagrams.net" modified="2022-12-09T08:38:05.587Z" agent="5.0 (Windows NT 10.0; Win64; x64) AppleWebKit/537.36 (KHTML, like Gecko) Chrome/108.0.0.0 Safari/537.36" version="20.6.0" etag="wEtAzceJWvmnLuFcXET0" type="github">
  <diagram id="3DfTSbF7fZH39TVP_mid" name="第 1 页">
    <mxGraphModel dx="1422" dy="786" grid="1" gridSize="10" guides="1" tooltips="1" connect="1" arrows="1" fold="1" page="1" pageScale="1" pageWidth="827" pageHeight="1169" math="0" shadow="0">
      <root>
        <mxCell id="0" />
        <mxCell id="1" parent="0" />
        <mxCell id="GtMvOBlIkOX2U-mXo-LI-204" value="0" style="text;strokeColor=#d79b00;fillColor=#ffe6cc;html=1;fontSize=24;fontStyle=1;verticalAlign=middle;align=center;sketch=0;hachureGap=4;jiggle=2;fontFamily=Architects Daughter;fontSource=https%3A%2F%2Ffonts.googleapis.com%2Fcss%3Ffamily%3DArchitects%2BDaughter;" vertex="1" parent="1">
          <mxGeometry x="785.69" y="430" width="34" height="59" as="geometry" />
        </mxCell>
        <mxCell id="GtMvOBlIkOX2U-mXo-LI-205" value="0" style="text;strokeColor=#d79b00;fillColor=#ffe6cc;html=1;fontSize=24;fontStyle=1;verticalAlign=middle;align=center;sketch=0;hachureGap=4;jiggle=2;fontFamily=Architects Daughter;fontSource=https%3A%2F%2Ffonts.googleapis.com%2Fcss%3Ffamily%3DArchitects%2BDaughter;" vertex="1" parent="1">
          <mxGeometry x="820.69" y="430" width="34" height="59" as="geometry" />
        </mxCell>
        <mxCell id="GtMvOBlIkOX2U-mXo-LI-206" value="0" style="text;strokeColor=#d79b00;fillColor=#ffe6cc;html=1;fontSize=24;fontStyle=1;verticalAlign=middle;align=center;sketch=0;hachureGap=4;jiggle=2;fontFamily=Architects Daughter;fontSource=https%3A%2F%2Ffonts.googleapis.com%2Fcss%3Ffamily%3DArchitects%2BDaughter;" vertex="1" parent="1">
          <mxGeometry x="856.69" y="430" width="34" height="59" as="geometry" />
        </mxCell>
        <mxCell id="GtMvOBlIkOX2U-mXo-LI-207" value="1" style="text;strokeColor=#d79b00;fillColor=#ffe6cc;html=1;fontSize=24;fontStyle=1;verticalAlign=middle;align=center;sketch=0;hachureGap=4;jiggle=2;fontFamily=Architects Daughter;fontSource=https%3A%2F%2Ffonts.googleapis.com%2Fcss%3Ffamily%3DArchitects%2BDaughter;" vertex="1" parent="1">
          <mxGeometry x="890.69" y="430" width="34" height="59" as="geometry" />
        </mxCell>
        <mxCell id="GtMvOBlIkOX2U-mXo-LI-208" value="0" style="text;strokeColor=#d79b00;fillColor=#ffe6cc;html=1;fontSize=24;fontStyle=1;verticalAlign=middle;align=center;sketch=0;hachureGap=4;jiggle=2;fontFamily=Architects Daughter;fontSource=https%3A%2F%2Ffonts.googleapis.com%2Fcss%3Ffamily%3DArchitects%2BDaughter;" vertex="1" parent="1">
          <mxGeometry x="926.3800000000001" y="430" width="34" height="59" as="geometry" />
        </mxCell>
        <mxCell id="GtMvOBlIkOX2U-mXo-LI-209" value="0" style="text;strokeColor=#d79b00;fillColor=#ffe6cc;html=1;fontSize=24;fontStyle=1;verticalAlign=middle;align=center;sketch=0;hachureGap=4;jiggle=2;fontFamily=Architects Daughter;fontSource=https%3A%2F%2Ffonts.googleapis.com%2Fcss%3Ffamily%3DArchitects%2BDaughter;" vertex="1" parent="1">
          <mxGeometry x="963.3800000000001" y="430" width="34" height="59" as="geometry" />
        </mxCell>
        <mxCell id="GtMvOBlIkOX2U-mXo-LI-210" value="0" style="text;strokeColor=#d79b00;fillColor=#ffe6cc;html=1;fontSize=24;fontStyle=1;verticalAlign=middle;align=center;sketch=0;hachureGap=4;jiggle=2;fontFamily=Architects Daughter;fontSource=https%3A%2F%2Ffonts.googleapis.com%2Fcss%3Ffamily%3DArchitects%2BDaughter;" vertex="1" parent="1">
          <mxGeometry x="998.3800000000001" y="430" width="34" height="59" as="geometry" />
        </mxCell>
        <mxCell id="GtMvOBlIkOX2U-mXo-LI-203" value="0" style="text;strokeColor=#d79b00;fillColor=#ffe6cc;html=1;fontSize=24;fontStyle=1;verticalAlign=middle;align=center;sketch=0;hachureGap=4;jiggle=2;fontFamily=Architects Daughter;fontSource=https%3A%2F%2Ffonts.googleapis.com%2Fcss%3Ffamily%3DArchitects%2BDaughter;" vertex="1" parent="1">
          <mxGeometry x="751.69" y="430" width="34" height="59" as="geometry" />
        </mxCell>
        <mxCell id="GtMvOBlIkOX2U-mXo-LI-202" value="1" style="text;strokeColor=#82b366;fillColor=#d5e8d4;html=1;fontSize=24;fontStyle=1;verticalAlign=middle;align=center;sketch=0;hachureGap=4;jiggle=2;fontFamily=Architects Daughter;fontSource=https%3A%2F%2Ffonts.googleapis.com%2Fcss%3Ffamily%3DArchitects%2BDaughter;" vertex="1" parent="1">
          <mxGeometry x="715.69" y="430" width="34" height="59" as="geometry" />
        </mxCell>
        <mxCell id="GtMvOBlIkOX2U-mXo-LI-201" value="0" style="text;strokeColor=#82b366;fillColor=#d5e8d4;html=1;fontSize=24;fontStyle=1;verticalAlign=middle;align=center;sketch=0;hachureGap=4;jiggle=2;fontFamily=Architects Daughter;fontSource=https%3A%2F%2Ffonts.googleapis.com%2Fcss%3Ffamily%3DArchitects%2BDaughter;" vertex="1" parent="1">
          <mxGeometry x="681" y="430" width="34" height="59" as="geometry" />
        </mxCell>
        <mxCell id="GtMvOBlIkOX2U-mXo-LI-200" value="0" style="text;strokeColor=#82b366;fillColor=#d5e8d4;html=1;fontSize=24;fontStyle=1;verticalAlign=middle;align=center;sketch=0;hachureGap=4;jiggle=2;fontFamily=Architects Daughter;fontSource=https%3A%2F%2Ffonts.googleapis.com%2Fcss%3Ffamily%3DArchitects%2BDaughter;" vertex="1" parent="1">
          <mxGeometry x="643" y="430" width="34" height="59" as="geometry" />
        </mxCell>
        <mxCell id="GtMvOBlIkOX2U-mXo-LI-199" value="1" style="text;strokeColor=#82b366;fillColor=#d5e8d4;html=1;fontSize=24;fontStyle=1;verticalAlign=middle;align=center;sketch=0;hachureGap=4;jiggle=2;fontFamily=Architects Daughter;fontSource=https%3A%2F%2Ffonts.googleapis.com%2Fcss%3Ffamily%3DArchitects%2BDaughter;" vertex="1" parent="1">
          <mxGeometry x="609" y="430" width="34" height="59" as="geometry" />
        </mxCell>
        <mxCell id="GtMvOBlIkOX2U-mXo-LI-197" value="0" style="text;strokeColor=#82b366;fillColor=#d5e8d4;html=1;fontSize=24;fontStyle=1;verticalAlign=middle;align=center;sketch=0;hachureGap=4;jiggle=2;fontFamily=Architects Daughter;fontSource=https%3A%2F%2Ffonts.googleapis.com%2Fcss%3Ffamily%3DArchitects%2BDaughter;" vertex="1" parent="1">
          <mxGeometry x="538" y="430" width="34" height="59" as="geometry" />
        </mxCell>
        <mxCell id="GtMvOBlIkOX2U-mXo-LI-198" value="1" style="text;strokeColor=#82b366;fillColor=#d5e8d4;html=1;fontSize=24;fontStyle=1;verticalAlign=middle;align=center;sketch=0;hachureGap=4;jiggle=2;fontFamily=Architects Daughter;fontSource=https%3A%2F%2Ffonts.googleapis.com%2Fcss%3Ffamily%3DArchitects%2BDaughter;" vertex="1" parent="1">
          <mxGeometry x="575" y="430" width="34" height="59" as="geometry" />
        </mxCell>
        <mxCell id="GtMvOBlIkOX2U-mXo-LI-196" value="0" style="text;strokeColor=#82b366;fillColor=#d5e8d4;html=1;fontSize=24;fontStyle=1;verticalAlign=middle;align=center;sketch=0;hachureGap=4;jiggle=2;fontFamily=Architects Daughter;fontSource=https%3A%2F%2Ffonts.googleapis.com%2Fcss%3Ffamily%3DArchitects%2BDaughter;" vertex="1" parent="1">
          <mxGeometry x="503" y="430" width="34" height="59" as="geometry" />
        </mxCell>
        <mxCell id="GtMvOBlIkOX2U-mXo-LI-195" value="1" style="text;strokeColor=#82b366;fillColor=#d5e8d4;html=1;fontSize=24;fontStyle=1;verticalAlign=middle;align=center;sketch=0;hachureGap=4;jiggle=2;fontFamily=Architects Daughter;fontSource=https%3A%2F%2Ffonts.googleapis.com%2Fcss%3Ffamily%3DArchitects%2BDaughter;" vertex="1" parent="1">
          <mxGeometry x="467" y="430" width="34" height="59" as="geometry" />
        </mxCell>
        <mxCell id="GtMvOBlIkOX2U-mXo-LI-194" value="1" style="text;strokeColor=#6c8ebf;fillColor=#dae8fc;html=1;fontSize=24;fontStyle=1;verticalAlign=middle;align=center;sketch=0;hachureGap=4;jiggle=2;fontFamily=Architects Daughter;fontSource=https%3A%2F%2Ffonts.googleapis.com%2Fcss%3Ffamily%3DArchitects%2BDaughter;" vertex="1" parent="1">
          <mxGeometry x="433" y="430" width="34" height="59" as="geometry" />
        </mxCell>
        <mxCell id="GtMvOBlIkOX2U-mXo-LI-193" value="1" style="text;strokeColor=#6c8ebf;fillColor=#dae8fc;html=1;fontSize=24;fontStyle=1;verticalAlign=middle;align=center;sketch=0;hachureGap=4;jiggle=2;fontFamily=Architects Daughter;fontSource=https%3A%2F%2Ffonts.googleapis.com%2Fcss%3Ffamily%3DArchitects%2BDaughter;" vertex="1" parent="1">
          <mxGeometry x="397" y="430" width="34" height="59" as="geometry" />
        </mxCell>
        <mxCell id="GtMvOBlIkOX2U-mXo-LI-192" value="0" style="text;strokeColor=#6c8ebf;fillColor=#dae8fc;html=1;fontSize=24;fontStyle=1;verticalAlign=middle;align=center;sketch=0;hachureGap=4;jiggle=2;fontFamily=Architects Daughter;fontSource=https%3A%2F%2Ffonts.googleapis.com%2Fcss%3Ffamily%3DArchitects%2BDaughter;" vertex="1" parent="1">
          <mxGeometry x="361.5" y="430" width="34" height="59" as="geometry" />
        </mxCell>
        <mxCell id="GtMvOBlIkOX2U-mXo-LI-191" value="1" style="text;strokeColor=#6c8ebf;fillColor=#dae8fc;html=1;fontSize=24;fontStyle=1;verticalAlign=middle;align=center;sketch=0;hachureGap=4;jiggle=2;fontFamily=Architects Daughter;fontSource=https%3A%2F%2Ffonts.googleapis.com%2Fcss%3Ffamily%3DArchitects%2BDaughter;" vertex="1" parent="1">
          <mxGeometry x="326.5" y="430" width="34" height="59" as="geometry" />
        </mxCell>
        <mxCell id="GtMvOBlIkOX2U-mXo-LI-190" value="0" style="text;strokeColor=#6c8ebf;fillColor=#dae8fc;html=1;fontSize=24;fontStyle=1;verticalAlign=middle;align=center;sketch=0;hachureGap=4;jiggle=2;fontFamily=Architects Daughter;fontSource=https%3A%2F%2Ffonts.googleapis.com%2Fcss%3Ffamily%3DArchitects%2BDaughter;" vertex="1" parent="1">
          <mxGeometry x="291.5" y="430" width="34" height="59" as="geometry" />
        </mxCell>
        <mxCell id="GtMvOBlIkOX2U-mXo-LI-188" value="0" style="text;strokeColor=#6c8ebf;fillColor=#dae8fc;html=1;fontSize=24;fontStyle=1;verticalAlign=middle;align=center;sketch=0;hachureGap=4;jiggle=2;fontFamily=Architects Daughter;fontSource=https%3A%2F%2Ffonts.googleapis.com%2Fcss%3Ffamily%3DArchitects%2BDaughter;" vertex="1" parent="1">
          <mxGeometry x="256.5" y="430" width="34" height="59" as="geometry" />
        </mxCell>
        <mxCell id="GtMvOBlIkOX2U-mXo-LI-186" value="0" style="text;strokeColor=#6c8ebf;fillColor=#dae8fc;html=1;fontSize=24;fontStyle=1;verticalAlign=middle;align=center;sketch=0;hachureGap=4;jiggle=2;fontFamily=Architects Daughter;fontSource=https%3A%2F%2Ffonts.googleapis.com%2Fcss%3Ffamily%3DArchitects%2BDaughter;" vertex="1" parent="1">
          <mxGeometry x="220.5" y="430" width="34" height="59" as="geometry" />
        </mxCell>
        <mxCell id="GtMvOBlIkOX2U-mXo-LI-182" value="1" style="text;strokeColor=#6c8ebf;fillColor=#dae8fc;html=1;fontSize=24;fontStyle=1;verticalAlign=middle;align=center;sketch=0;hachureGap=4;jiggle=2;fontFamily=Architects Daughter;fontSource=https%3A%2F%2Ffonts.googleapis.com%2Fcss%3Ffamily%3DArchitects%2BDaughter;" vertex="1" parent="1">
          <mxGeometry x="184.5" y="430" width="34" height="59" as="geometry" />
        </mxCell>
        <mxCell id="GtMvOBlIkOX2U-mXo-LI-16" value="" style="shape=partialRectangle;whiteSpace=wrap;html=1;left=0;right=0;fillColor=none;sketch=1;rounded=0;" vertex="1" parent="1">
          <mxGeometry x="190" y="740" width="858" height="63" as="geometry" />
        </mxCell>
        <mxCell id="GtMvOBlIkOX2U-mXo-LI-4" value="" style="line;strokeWidth=2;direction=south;html=1;sketch=1;rounded=0;" vertex="1" parent="1">
          <mxGeometry x="180" y="430" width="10" height="60" as="geometry" />
        </mxCell>
        <mxCell id="GtMvOBlIkOX2U-mXo-LI-33" value="" style="line;strokeWidth=2;direction=south;html=1;sketch=1;rounded=0;" vertex="1" parent="1">
          <mxGeometry x="215" y="430" width="10" height="60" as="geometry" />
        </mxCell>
        <mxCell id="GtMvOBlIkOX2U-mXo-LI-34" value="" style="line;strokeWidth=2;direction=south;html=1;sketch=1;rounded=0;" vertex="1" parent="1">
          <mxGeometry x="392" y="430" width="10" height="60" as="geometry" />
        </mxCell>
        <mxCell id="GtMvOBlIkOX2U-mXo-LI-35" value="" style="line;strokeWidth=2;direction=south;html=1;sketch=1;rounded=0;" vertex="1" parent="1">
          <mxGeometry x="357" y="430" width="10" height="60" as="geometry" />
        </mxCell>
        <mxCell id="GtMvOBlIkOX2U-mXo-LI-36" value="" style="line;strokeWidth=2;direction=south;html=1;sketch=1;rounded=0;" vertex="1" parent="1">
          <mxGeometry x="322" y="430" width="10" height="60" as="geometry" />
        </mxCell>
        <mxCell id="GtMvOBlIkOX2U-mXo-LI-37" value="" style="line;strokeWidth=2;direction=south;html=1;sketch=1;rounded=0;" vertex="1" parent="1">
          <mxGeometry x="286" y="430" width="10" height="60" as="geometry" />
        </mxCell>
        <mxCell id="GtMvOBlIkOX2U-mXo-LI-38" value="" style="line;strokeWidth=2;direction=south;html=1;sketch=1;rounded=0;" vertex="1" parent="1">
          <mxGeometry x="251" y="430" width="10" height="60" as="geometry" />
        </mxCell>
        <mxCell id="GtMvOBlIkOX2U-mXo-LI-39" value="" style="line;strokeWidth=2;direction=south;html=1;sketch=1;rounded=0;" vertex="1" parent="1">
          <mxGeometry x="463" y="430" width="10" height="60" as="geometry" />
        </mxCell>
        <mxCell id="GtMvOBlIkOX2U-mXo-LI-43" value="" style="line;strokeWidth=2;direction=south;html=1;sketch=1;rounded=0;" vertex="1" parent="1">
          <mxGeometry x="428" y="430" width="10" height="60" as="geometry" />
        </mxCell>
        <mxCell id="GtMvOBlIkOX2U-mXo-LI-145" value="" style="line;strokeWidth=2;direction=south;html=1;sketch=1;rounded=0;" vertex="1" parent="1">
          <mxGeometry x="497.69" y="430" width="10" height="60" as="geometry" />
        </mxCell>
        <mxCell id="GtMvOBlIkOX2U-mXo-LI-146" value="" style="line;strokeWidth=2;direction=south;html=1;sketch=1;rounded=0;" vertex="1" parent="1">
          <mxGeometry x="674.69" y="430" width="10" height="60" as="geometry" />
        </mxCell>
        <mxCell id="GtMvOBlIkOX2U-mXo-LI-147" value="" style="line;strokeWidth=2;direction=south;html=1;sketch=1;rounded=0;" vertex="1" parent="1">
          <mxGeometry x="639.69" y="430" width="10" height="60" as="geometry" />
        </mxCell>
        <mxCell id="GtMvOBlIkOX2U-mXo-LI-148" value="" style="line;strokeWidth=2;direction=south;html=1;sketch=1;rounded=0;" vertex="1" parent="1">
          <mxGeometry x="604.69" y="430" width="10" height="60" as="geometry" />
        </mxCell>
        <mxCell id="GtMvOBlIkOX2U-mXo-LI-149" value="" style="line;strokeWidth=2;direction=south;html=1;sketch=1;rounded=0;" vertex="1" parent="1">
          <mxGeometry x="568.69" y="430" width="10" height="60" as="geometry" />
        </mxCell>
        <mxCell id="GtMvOBlIkOX2U-mXo-LI-150" value="" style="line;strokeWidth=2;direction=south;html=1;sketch=1;rounded=0;" vertex="1" parent="1">
          <mxGeometry x="533.69" y="430" width="10" height="60" as="geometry" />
        </mxCell>
        <mxCell id="GtMvOBlIkOX2U-mXo-LI-151" value="" style="line;strokeWidth=2;direction=south;html=1;sketch=1;rounded=0;" vertex="1" parent="1">
          <mxGeometry x="745.69" y="430" width="10" height="60" as="geometry" />
        </mxCell>
        <mxCell id="GtMvOBlIkOX2U-mXo-LI-152" value="" style="line;strokeWidth=2;direction=south;html=1;sketch=1;rounded=0;" vertex="1" parent="1">
          <mxGeometry x="710.69" y="430" width="10" height="60" as="geometry" />
        </mxCell>
        <mxCell id="GtMvOBlIkOX2U-mXo-LI-161" value="" style="line;strokeWidth=2;direction=south;html=1;sketch=1;rounded=0;" vertex="1" parent="1">
          <mxGeometry x="780.38" y="430" width="10" height="60" as="geometry" />
        </mxCell>
        <mxCell id="GtMvOBlIkOX2U-mXo-LI-162" value="" style="line;strokeWidth=2;direction=south;html=1;sketch=1;rounded=0;" vertex="1" parent="1">
          <mxGeometry x="957.3800000000001" y="430" width="10" height="60" as="geometry" />
        </mxCell>
        <mxCell id="GtMvOBlIkOX2U-mXo-LI-163" value="" style="line;strokeWidth=2;direction=south;html=1;sketch=1;rounded=0;" vertex="1" parent="1">
          <mxGeometry x="922.3800000000001" y="430" width="10" height="60" as="geometry" />
        </mxCell>
        <mxCell id="GtMvOBlIkOX2U-mXo-LI-164" value="" style="line;strokeWidth=2;direction=south;html=1;sketch=1;rounded=0;" vertex="1" parent="1">
          <mxGeometry x="887.3800000000001" y="430" width="10" height="60" as="geometry" />
        </mxCell>
        <mxCell id="GtMvOBlIkOX2U-mXo-LI-165" value="" style="line;strokeWidth=2;direction=south;html=1;sketch=1;rounded=0;" vertex="1" parent="1">
          <mxGeometry x="851.3800000000001" y="430" width="10" height="60" as="geometry" />
        </mxCell>
        <mxCell id="GtMvOBlIkOX2U-mXo-LI-166" value="" style="line;strokeWidth=2;direction=south;html=1;sketch=1;rounded=0;" vertex="1" parent="1">
          <mxGeometry x="816.3800000000001" y="430" width="10" height="60" as="geometry" />
        </mxCell>
        <mxCell id="GtMvOBlIkOX2U-mXo-LI-167" value="" style="line;strokeWidth=2;direction=south;html=1;sketch=1;rounded=0;" vertex="1" parent="1">
          <mxGeometry x="1028.38" y="430" width="10" height="60" as="geometry" />
        </mxCell>
        <mxCell id="GtMvOBlIkOX2U-mXo-LI-168" value="" style="line;strokeWidth=2;direction=south;html=1;sketch=1;rounded=0;" vertex="1" parent="1">
          <mxGeometry x="993.3800000000001" y="430" width="10" height="60" as="geometry" />
        </mxCell>
        <mxCell id="GtMvOBlIkOX2U-mXo-LI-170" value="" style="shape=partialRectangle;whiteSpace=wrap;html=1;bottom=0;top=0;fillColor=none;sketch=1;hachureGap=4;jiggle=2;fontFamily=Architects Daughter;fontSource=https%3A%2F%2Ffonts.googleapis.com%2Fcss%3Ffamily%3DArchitects%2BDaughter;fontSize=20;strokeColor=#7EA6E0;" vertex="1" parent="1">
          <mxGeometry x="183.5" y="491.99" width="846.5" height="60" as="geometry" />
        </mxCell>
        <mxCell id="GtMvOBlIkOX2U-mXo-LI-175" value="" style="line;strokeWidth=2;direction=south;html=1;sketch=1;rounded=0;strokeColor=#7EA6E0;" vertex="1" parent="1">
          <mxGeometry x="463" y="491.99" width="10" height="60" as="geometry" />
        </mxCell>
        <mxCell id="GtMvOBlIkOX2U-mXo-LI-179" value="" style="line;strokeWidth=2;direction=south;html=1;sketch=1;rounded=0;strokeColor=#7EA6E0;" vertex="1" parent="1">
          <mxGeometry x="745.69" y="491.99" width="10" height="60" as="geometry" />
        </mxCell>
      </root>
    </mxGraphModel>
  </diagram>
</mxfile>
